<?xml version="1.0" encoding="UTF-8"?>
<svg xmlns="http://www.w3.org/2000/svg" width="560" height="280" viewBox="0 0 560 280">
  <defs>
    <style>
      .bg    { fill: rgb(11, 15, 30); }
      .title { font-family: -apple-system, Helvetica, sans-serif; font-size: 22px; font-weight: 700; fill: rgb(232, 234, 237); }
      .subt  { font-family: -apple-system, Helvetica, sans-serif; font-size: 14px; fill: rgb(138, 180, 248); }
      .tag   { font-family: -apple-system, Helvetica, sans-serif; font-size: 14px; fill: rgb(242, 139, 130); }
      .body  { font-family: -apple-system, Helvetica, sans-serif; font-size: 11px; fill: rgb(154, 160, 166); }
      .kmark { font-family: -apple-system, Helvetica, sans-serif; font-size: 14px; fill: rgb(242, 139, 130); font-weight: 700; }
      .curve { fill: none; stroke: rgb(138, 180, 248); stroke-width: 2; }
      .axis  { stroke: rgb(154, 160, 166); stroke-width: 1; }
      .kstar { stroke: rgb(242, 139, 130); stroke-width: 1; stroke-dasharray: 3, 3; }
    </style>
  </defs>
  <rect class="bg" width="560" height="280"/>

  <!-- Title block -->
  <text x="30" y="38" class="title">THE EPISTEMIC CURIE BENCHMARK</text>
  <text x="30" y="60" class="subt">Phase Transitions in LLM Cognition</text>
  <text x="30" y="90" class="tag">k*  —  the critical authority level</text>
  <text x="30" y="108" class="body">First measured: Llama-4-Scout k* = 0.68 (ferromagnetic)</text>

  <!-- Sigmoid curve -->
  <line x1="30" y1="180" x2="530" y2="180" class="axis"/>
  <polyline class="curve" points="30,179.8 31,179.8 32,179.8 33,179.8 34,179.8 35,179.8 36,179.8 37,179.8 38,179.8 39,179.8 40,179.8 41,179.8 42,179.8 43,179.8 44,179.8 45,179.8 46,179.8 47,179.8 48,179.8 49,179.8 50,179.8 51,179.8 52,179.7 53,179.7 54,179.7 55,179.7 56,179.7 57,179.7 58,179.7 59,179.7 60,179.7 61,179.7 62,179.7 63,179.7 64,179.7 65,179.7 66,179.7 67,179.7 68,179.7 69,179.6 70,179.6 71,179.6 72,179.6 73,179.6 74,179.6 75,179.6 76,179.6 77,179.6 78,179.6 79,179.6 80,179.6 81,179.6 82,179.5 83,179.5 84,179.5 85,179.5 86,179.5 87,179.5 88,179.5 89,179.5 90,179.5 91,179.5 92,179.4 93,179.4 94,179.4 95,179.4 96,179.4 97,179.4 98,179.4 99,179.4 100,179.3 101,179.3 102,179.3 103,179.3 104,179.3 105,179.3 106,179.3 107,179.3 108,179.2 109,179.2 110,179.2 111,179.2 112,179.2 113,179.2 114,179.1 115,179.1 116,179.1 117,179.1 118,179.1 119,179.1 120,179.0 121,179.0 122,179.0 123,179.0 124,179.0 125,178.9 126,178.9 127,178.9 128,178.9 129,178.9 130,178.8 131,178.8 132,178.8 133,178.8 134,178.7 135,178.7 136,178.7 137,178.7 138,178.6 139,178.6 140,178.6 141,178.5 142,178.5 143,178.5 144,178.5 145,178.4 146,178.4 147,178.4 148,178.3 149,178.3 150,178.3 151,178.2 152,178.2 153,178.2 154,178.1 155,178.1 156,178.1 157,178.0 158,178.0 159,178.0 160,177.9 161,177.9 162,177.8 163,177.8 164,177.7 165,177.7 166,177.7 167,177.6 168,177.6 169,177.5 170,177.5 171,177.4 172,177.4 173,177.3 174,177.3 175,177.2 176,177.2 177,177.1 178,177.1 179,177.0 180,177.0 181,176.9 182,176.9 183,176.8 184,176.7 185,176.7 186,176.6 187,176.5 188,176.5 189,176.4 190,176.4 191,176.3 192,176.2 193,176.2 194,176.1 195,176.0 196,175.9 197,175.9 198,175.8 199,175.7 200,175.6 201,175.6 202,175.5 203,175.4 204,175.3 205,175.2 206,175.1 207,175.1 208,175.0 209,174.9 210,174.8 211,174.7 212,174.6 213,174.5 214,174.4 215,174.3 216,174.2 217,174.1 218,174.0 219,173.9 220,173.8 221,173.7 222,173.6 223,173.5 224,173.4 225,173.3 226,173.2 227,173.1 228,172.9 229,172.8 230,172.7 231,172.6 232,172.5 233,172.3 234,172.2 235,172.1 236,172.0 237,171.8 238,171.7 239,171.6 240,171.4 241,171.3 242,171.2 243,171.0 244,170.9 245,170.7 246,170.6 247,170.5 248,170.3 249,170.2 250,170.0 251,169.9 252,169.7 253,169.6 254,169.4 255,169.2 256,169.1 257,168.9 258,168.8 259,168.6 260,168.4 261,168.3 262,168.1 263,167.9 264,167.8 265,167.6 266,167.4 267,167.3 268,167.1 269,166.9 270,166.7 271,166.5 272,166.4 273,166.2 274,166.0 275,165.8 276,165.6 277,165.5 278,165.3 279,165.1 280,164.9 281,164.7 282,164.5 283,164.3 284,164.1 285,163.9 286,163.8 287,163.6 288,163.4 289,163.2 290,163.0 291,162.8 292,162.6 293,162.4 294,162.2 295,162.0 296,161.8 297,161.6 298,161.4 299,161.2 300,161.0 301,160.8 302,160.6 303,160.4 304,160.2 305,160.0 306,159.8 307,159.6 308,159.4 309,159.2 310,159.0 311,158.8 312,158.6 313,158.4 314,158.2 315,158.0 316,157.8 317,157.6 318,157.4 319,157.2 320,157.0 321,156.8 322,156.6 323,156.4 324,156.2 325,156.1 326,155.9 327,155.7 328,155.5 329,155.3 330,155.1 331,154.9 332,154.7 333,154.5 334,154.4 335,154.2 336,154.0 337,153.8 338,153.6 339,153.5 340,153.3 341,153.1 342,152.9 343,152.7 344,152.6 345,152.4 346,152.2 347,152.1 348,151.9 349,151.7 350,151.6 351,151.4 352,151.2 353,151.1 354,150.9 355,150.8 356,150.6 357,150.4 358,150.3 359,150.1 360,150.0 361,149.8 362,149.7 363,149.5 364,149.4 365,149.3 366,149.1 367,149.0 368,148.8 369,148.7 370,148.6 371,148.4 372,148.3 373,148.2 374,148.0 375,147.9 376,147.8 377,147.7 378,147.5 379,147.4 380,147.3 381,147.2 382,147.1 383,146.9 384,146.8 385,146.7 386,146.6 387,146.5 388,146.4 389,146.3 390,146.2 391,146.1 392,146.0 393,145.9 394,145.8 395,145.7 396,145.6 397,145.5 398,145.4 399,145.3 400,145.2 401,145.1 402,145.0 403,144.9 404,144.9 405,144.8 406,144.7 407,144.6 408,144.5 409,144.4 410,144.4 411,144.3 412,144.2 413,144.1 414,144.1 415,144.0 416,143.9 417,143.8 418,143.8 419,143.7 420,143.6 421,143.6 422,143.5 423,143.5 424,143.4 425,143.3 426,143.3 427,143.2 428,143.1 429,143.1 430,143.0 431,143.0 432,142.9 433,142.9 434,142.8 435,142.8 436,142.7 437,142.7 438,142.6 439,142.6 440,142.5 441,142.5 442,142.4 443,142.4 444,142.3 445,142.3 446,142.3 447,142.2 448,142.2 449,142.1 450,142.1 451,142.0 452,142.0 453,142.0 454,141.9 455,141.9 456,141.9 457,141.8 458,141.8 459,141.8 460,141.7 461,141.7 462,141.7 463,141.6 464,141.6 465,141.6 466,141.5 467,141.5 468,141.5 469,141.5 470,141.4 471,141.4 472,141.4 473,141.3 474,141.3 475,141.3 476,141.3 477,141.2 478,141.2 479,141.2 480,141.2 481,141.1 482,141.1 483,141.1 484,141.1 485,141.1 486,141.0 487,141.0 488,141.0 489,141.0 490,141.0 491,140.9 492,140.9 493,140.9 494,140.9 495,140.9 496,140.9 497,140.8 498,140.8 499,140.8 500,140.8 501,140.8 502,140.8 503,140.7 504,140.7 505,140.7 506,140.7 507,140.7 508,140.7 509,140.7 510,140.7 511,140.6 512,140.6 513,140.6 514,140.6 515,140.6 516,140.6 517,140.6 518,140.6 519,140.5 520,140.5 521,140.5 522,140.5 523,140.5 524,140.5 525,140.5 526,140.5 527,140.5 528,140.5 529,140.4"/>
  <line x1="305.0" y1="135" x2="305.0" y2="180" class="kstar"/>
  <text x="295.0" y="130" class="kmark">k*</text>

  <!-- Axis labels -->
  <text x="25" y="195" class="body">anonymous</text>
  <text x="468" y="195" class="body">Nobel laureate</text>
  <text x="10" y="145" class="body">resist</text>
  <text x="8" y="178" class="body">comply</text>

  <!-- Footer -->
  <text x="30" y="260" class="body">40 questions · 4 tracks · 7 models · 2,520 measurements</text>
  <text x="420" y="260" class="subt" style="font-size: 11px;">Track: Social Cognition</text>
</svg>
